<?xml version="1.0" encoding="UTF-8"?>
<svg width="368px" height="428px" viewBox="0 0 368 428" version="1.1" xmlns="http://www.w3.org/2000/svg" xmlns:xlink="http://www.w3.org/1999/xlink">
    <!-- Generator: Sketch 43.2 (39069) - http://www.bohemiancoding.com/sketch -->
    <title>Shape</title>
    <desc>Created with Sketch.</desc>
    <defs></defs>
    <g id="Page-1" stroke="none" stroke-width="1" fill="none" fill-rule="evenodd">
        <g id="tron" fill-rule="nonzero" fill="#FFFFFF">
            <path d="M362.4,112.7 C345.1,100.6 326.6,87.7 308.5,74.9 C308.1,74.6 307.7,74.3 307.2,74 C305.2,72.5 302.9,70.9 300.1,70 L299.9,69.9 C251.5,58.2 202.3,46.2 154.7,34.6 C111.5,24.1 68.4,13.6 25.2,3.1 C24.1,2.8 23,2.5 21.8,2.2 C17.9,1.1 13.4,-0.1 8.6,0.5 C7.2,0.7 6,1.2 4.9,1.9 L3.7,2.9 C1.8,4.7 0.8,7 0.3,8.3 L0,9.1 L0,13.7 L0.2,14.4 C27.5,90.9 55.5,168.5 82.5,243.6 C103.3,301.4 124.9,361.3 146,420.1 C147.3,424.1 151,426.7 155.6,427.1 L156.6,427.1 C160.9,427.1 164.7,425 166.6,421.6 L245.8,306.1 C265.1,278 284.4,249.8 303.7,221.7 C311.6,210.2 319.5,198.6 327.4,187.1 C340.4,168.1 353.8,148.5 367.1,129.4 L367.8,128.4 L367.8,127.2 C368.1,123.7 368.2,116.5 362.4,112.7 M269.6,154.8 C251,164.5 232,174.5 212.9,184.4 C224,172.5 235.2,160.5 246.3,148.6 C260.2,133.6 274.7,118.1 288.9,102.9 L289.2,102.6 C290.4,101 291.9,99.5 293.5,97.9 C294.6,96.8 295.8,95.7 296.9,94.4 C304.3,99.5 311.8,104.7 319,109.8 C324.2,113.5 329.5,117.2 334.9,120.9 C312.9,132.1 290.9,143.6 269.6,154.8 M221.8,150 C207.5,165.5 192.7,181.4 178,197.1 C149.5,162.5 120.4,127.4 92.2,93.5 C79.4,78.1 66.5,62.6 53.7,47.2 L53.6,47.1 C50.7,43.8 47.9,40.2 45.1,36.8 C43.3,34.5 41.4,32.3 39.5,30 C51.1,33 62.8,35.8 74.3,38.5 C84.4,40.9 94.9,43.4 105.2,46 C163.2,60.1 221.3,74.2 279.3,88.3 C260,108.9 240.6,129.8 221.8,150 M171.5,344.9 C172.6,334.4 173.8,323.6 174.8,313 C175.7,304.5 176.6,295.8 177.5,287.5 C178.9,274.2 180.4,260.4 181.6,246.9 L181.9,244.5 C182.9,235.9 183.9,227 184.5,218.1 C185.6,217.5 186.8,216.9 188.1,216.4 C189.6,215.7 191.1,215.1 192.6,214.2 C215.7,202.1 238.8,190 262,178 C285.1,166 308.8,153.6 332.3,141.3 C310.9,172.3 289.4,203.6 268.6,234.1 C250.7,260.2 232.3,287.1 214,313.6 C206.8,324.2 199.3,335 192.2,345.4 C184.2,357 176,368.9 168,380.8 C169,368.8 170.2,356.7 171.5,344.9 M32.1,53.6 C30.8,50 29.4,46.3 28.2,42.8 C55.2,75.4 82.4,108.2 108.9,140 C122.6,156.5 136.3,172.9 150,189.5 C152.7,192.6 155.4,195.9 158,199.1 C161.4,203.2 164.8,207.5 168.5,211.6 C167.3,221.9 166.3,232.3 165.2,242.3 C164.5,249.3 163.8,256.3 163,263.4 L163,263.5 C162.7,268 162.1,272.5 161.6,276.9 C160.9,283 159.3,296.8 159.3,296.8 L159.2,297.5 C157.4,317.7 155.2,338.1 153.1,357.9 C152.2,366.1 151.4,374.5 150.5,382.9 C150,381.4 149.4,379.9 148.9,378.5 C147.4,374.5 145.9,370.3 144.5,366.2 L133.8,336.5 C99.9,242.2 66,148 32.1,53.6" id="Shape"></path>
        </g>
    </g>
</svg>